<?xml version="1.0" standalone="no"?>
<!DOCTYPE svg PUBLIC "-//W3C//DTD SVG 20010904//EN"
 "http://www.w3.org/TR/2001/REC-SVG-20010904/DTD/svg10.dtd">
<svg version="1.0" xmlns="http://www.w3.org/2000/svg"
 width="32.000000pt" height="32.000000pt" viewBox="0 0 32.000000 32.000000"
 preserveAspectRatio="xMidYMid meet">

<g transform="translate(0.000000,32.000000) scale(0.100000,-0.100000)"
fill="#000000" stroke="none">
<path d="M148 313 c-15 -3 -39 -18 -53 -34 l-25 -31 0 31 c0 26 -4 31 -25 31
l-25 0 0 -150 0 -150 25 0 25 0 0 104 c0 96 2 107 24 133 34 39 98 39 132 0
22 -26 24 -37 24 -133 l0 -104 25 0 25 0 0 100 c0 64 -5 113 -14 135 -22 51
-74 77 -138 68z"/>
</g>
</svg>
